<?xml version="1.0" standalone="no"?>
<!DOCTYPE svg PUBLIC "-//W3C//DTD SVG 20010904//EN"
 "http://www.w3.org/TR/2001/REC-SVG-20010904/DTD/svg10.dtd">
<svg version="1.0" xmlns="http://www.w3.org/2000/svg"
 width="300.000000pt" height="300.000000pt" viewBox="0 0 300.000000 300.000000"
 preserveAspectRatio="xMidYMid meet">

<g transform="translate(0.000000,300.000000) scale(0.100000,-0.100000)"
fill="#000000" stroke="none">
<path d="M398 2544 c-17 -17 -5 -43 47 -104 l55 -65 0 -124 0 -124 -70 -83
c-38 -45 -70 -90 -70 -98 0 -17 66 -57 125 -77 62 -20 162 -16 214 10 25 11
46 21 47 21 1 0 4 -80 6 -177 4 -176 5 -179 36 -240 17 -34 57 -98 87 -143
l56 -82 -55 -59 c-64 -69 -134 -202 -160 -304 -10 -38 -20 -76 -22 -83 -6 -21
-86 28 -103 63 -13 26 -12 40 4 120 26 122 23 239 -7 334 -25 81 -48 106 -73
81 -13 -13 -12 -24 10 -93 29 -91 33 -216 10 -312 -24 -98 -20 -149 14 -188
16 -18 52 -44 80 -57 l51 -23 0 -67 c0 -160 68 -246 163 -207 47 20 71 66 64
124 -6 56 -37 101 -104 149 -51 37 -53 40 -47 74 10 59 54 183 81 230 68 117
146 193 268 262 l59 33 12 65 c15 78 37 141 65 186 l21 34 -21 55 c-28 73 -27
76 13 60 31 -13 37 -13 50 1 9 8 16 23 16 32 0 12 6 8 18 -11 15 -26 21 -28
55 -23 29 5 49 1 85 -18 26 -14 55 -27 65 -30 22 -7 23 -77 2 -110 -24 -36
-87 -76 -152 -95 -50 -15 -58 -20 -58 -42 0 -22 4 -24 42 -22 22 1 60 11 82
21 l41 20 14 -26 c31 -60 50 -149 50 -237 1 -102 -7 -122 -100 -257 -82 -121
-91 -184 -39 -296 l24 -52 54 0 c50 0 100 -20 86 -35 -12 -12 -233 -23 -336
-18 -90 5 -103 4 -109 -11 -3 -9 -1 -23 5 -30 17 -21 198 -30 328 -18 172 17
199 34 169 107 -17 40 -63 65 -121 65 -32 0 -38 4 -51 35 -7 19 -14 57 -14 84
0 45 6 60 57 133 96 141 108 176 107 298 -1 90 -5 118 -33 199 -34 102 -36 88
16 159 12 17 16 44 16 99 0 81 -7 93 -55 93 -15 0 -48 11 -74 25 -26 14 -59
25 -74 25 -17 0 -40 12 -60 30 -18 17 -37 30 -42 30 -6 0 -22 -13 -38 -30 -25
-27 -30 -28 -63 -18 -71 22 -83 -9 -47 -124 l19 -63 -24 -50 c-13 -28 -32 -84
-41 -125 l-16 -75 -66 -38 c-36 -20 -66 -36 -67 -35 -18 24 -108 166 -130 203
-28 49 -29 52 -33 241 -5 202 -6 196 44 282 18 32 18 33 1 47 -25 18 -37 12
-73 -43 -49 -74 -101 -106 -185 -110 -50 -3 -83 1 -115 13 -24 9 -44 19 -44
21 0 3 27 36 60 75 l60 70 0 152 0 153 -30 29 c-16 16 -30 32 -30 37 0 13 51
9 95 -8 29 -10 78 -15 173 -14 160 1 172 -4 239 -103 98 -145 297 -302 543
-428 70 -36 105 -63 196 -154 210 -209 348 -468 440 -825 19 -74 40 -147 46
-162 6 -15 41 -57 79 -92 75 -72 230 -156 290 -159 29 -2 34 1 34 21 0 19 -11
28 -65 49 -120 49 -232 126 -269 187 -10 17 -31 80 -46 140 -85 343 -235 644
-424 848 -95 102 -178 166 -281 218 -104 52 -207 117 -280 178 -87 72 -190
174 -206 205 -22 41 -83 106 -115 123 -20 10 -65 14 -161 14 -91 0 -149 5
-183 16 -58 17 -197 30 -207 18z m386 -1868 c65 -49 84 -130 37 -156 -43 -22
-67 13 -77 115 -4 36 -3 65 1 65 5 0 22 -11 39 -24z"/>
</g>
</svg>
